<svg xmlns="http://www.w3.org/2000/svg" xmlns:xlink="http://www.w3.org/1999/xlink" width="1920" zoomAndPan="magnify" viewBox="0 0 1440 599.999999" height="800" preserveAspectRatio="xMidYMid meet" version="1.0"><defs><g/><clipPath id="3313e4e415"><path d="M 84.40625 37.625 L 609.40625 37.625 L 609.40625 562.625 L 84.40625 562.625 Z M 84.40625 37.625 " clip-rule="nonzero"/></clipPath><clipPath id="aa735bb16b"><rect x="0" width="620" y="0" height="156"/></clipPath><clipPath id="acafcc47e4"><rect x="0" width="371" y="0" height="106"/></clipPath></defs><g clip-path="url(#3313e4e415)"><path fill="#ffffff" d="M 346.746094 47.058594 C 486.421875 47.058594 599.652344 160.296875 599.652344 299.96875 C 599.652344 439.640625 486.421875 552.878906 346.746094 552.878906 C 207.070312 552.878906 93.839844 439.640625 93.839844 299.96875 C 93.839844 160.296875 207.070312 47.058594 346.746094 47.058594 Z M 346.746094 37.609375 C 201.847656 37.609375 84.390625 155.070312 84.390625 299.96875 C 84.390625 444.871094 201.847656 562.328125 346.746094 562.328125 C 491.648438 562.328125 609.109375 444.871094 609.109375 299.96875 C 609.109375 155.070312 491.648438 37.609375 346.746094 37.609375 Z M 472.496094 183.246094 L 472.496094 292.96875 L 441.570312 272.996094 L 383.097656 309.308594 L 373.257812 315.425781 L 367.503906 318.992188 L 367.503906 150.746094 L 301.050781 191.925781 L 301.050781 264.3125 L 285.457031 253.757812 L 285.457031 183.246094 L 383.097656 122.734375 Z M 128.386719 299.96875 C 128.386719 179.371094 226.148438 81.609375 346.75 81.609375 C 467.347656 81.609375 565.105469 179.371094 565.105469 299.96875 C 565.105469 355.695312 544.199219 406.519531 509.847656 445.105469 L 509.847656 328.816406 L 441.816406 282.765625 L 367.503906 328.816406 L 367.503906 517.320312 C 360.667969 517.964844 353.75 518.328125 346.75 518.328125 C 339.746094 518.328125 332.828125 517.964844 325.988281 517.320312 L 325.988281 291.761719 L 257.957031 245.710938 L 183.652344 291.761719 L 183.652344 445.105469 C 149.296875 406.519531 128.386719 355.695312 128.386719 299.96875 Z M 195.515625 298.371094 L 246.09375 267.03125 L 246.09375 493.730469 C 227.503906 484.050781 210.492188 471.785156 195.515625 457.398438 Z M 379.371094 335.425781 L 429.949219 304.085938 L 429.949219 501.878906 C 413.953125 508.472656 397.011719 513.25 379.371094 515.890625 Z M 106.5 299.96875 C 106.5 432.652344 214.0625 540.21875 346.75 540.21875 C 479.433594 540.21875 586.996094 432.652344 586.996094 299.96875 C 586.996094 167.285156 479.433594 59.722656 346.75 59.722656 C 214.0625 59.722656 106.5 167.285156 106.5 299.96875 " fill-opacity="1" fill-rule="nonzero"/></g><g transform="matrix(1, 0, 0, 1, 728, 132)"><g clip-path="url(#aa735bb16b)"><g fill="#ffffff" fill-opacity="1"><g transform="translate(1.785914, 106.323596)"><g><path d="M 23.984375 -93.734375 L 63.34375 -41.328125 L 62.8125 -93.734375 L 84.765625 -93.734375 L 84.765625 0 L 70.0625 0 L 30.390625 -52.484375 L 30.921875 0 L 8.96875 0 L 8.96875 -93.734375 Z M 23.984375 -93.734375 "/></g></g></g><g fill="#ffffff" fill-opacity="1"><g transform="translate(133.968775, 106.323596)"><g><path d="M 75.78125 0 L 8.96875 0 L 8.96875 -93.734375 L 74.875 -93.734375 L 71.71875 -75.40625 L 31.296875 -75.40625 L 31.296875 -56.625 L 69.296875 -56.625 L 69.296875 -38.234375 L 31.296875 -38.234375 L 31.296875 -18.40625 L 75.78125 -18.40625 Z M 75.78125 0 "/></g></g></g><g fill="#ffffff" fill-opacity="1"><g transform="translate(252.72939, 106.323596)"><g><path d="M 41.015625 -30.921875 L 25.484375 0 L -0.15625 0 L 27.375 -48.484375 L 1.65625 -93.734375 L 27.140625 -93.734375 L 40.953125 -65.90625 L 54.828125 -93.734375 L 80.3125 -93.734375 L 54.59375 -48.484375 L 82.203125 0 L 56.78125 0 Z M 41.015625 -30.921875 "/></g></g></g><g fill="#ffffff" fill-opacity="1"><g transform="translate(373.148917, 106.323596)"><g><path d="M 45.625 1.28125 C 38.226562 1.28125 31.703125 -0.113281 26.046875 -2.90625 C 20.390625 -5.695312 16.003906 -9.628906 12.890625 -14.703125 C 9.773438 -19.785156 8.21875 -25.644531 8.21875 -32.28125 L 8.21875 -93.734375 L 30.546875 -93.734375 L 30.546875 -33.328125 C 30.546875 -30.109375 31.171875 -27.265625 32.421875 -24.796875 C 33.679688 -22.335938 35.453125 -20.441406 37.734375 -19.109375 C 40.023438 -17.785156 42.65625 -17.125 45.625 -17.125 C 48.632812 -17.125 51.285156 -17.785156 53.578125 -19.109375 C 55.867188 -20.441406 57.640625 -22.335938 58.890625 -24.796875 C 60.148438 -27.265625 60.78125 -30.109375 60.78125 -33.328125 L 60.78125 -93.734375 L 83.09375 -93.734375 L 83.09375 -32.28125 C 83.09375 -25.644531 81.535156 -19.785156 78.421875 -14.703125 C 75.304688 -9.628906 70.921875 -5.695312 65.265625 -2.90625 C 59.609375 -0.113281 53.0625 1.28125 45.625 1.28125 Z M 45.625 1.28125 "/></g></g></g><g fill="#ffffff" fill-opacity="1"><g transform="translate(502.918808, 106.323596)"><g><path d="M 38 1.28125 C 32.070312 1.28125 26.328125 0.703125 20.765625 -0.453125 C 15.210938 -1.609375 10.851562 -3.117188 7.6875 -4.984375 L 4.453125 -24.203125 C 8.972656 -22.097656 14.109375 -20.390625 19.859375 -19.078125 C 25.617188 -17.773438 30.988281 -17.125 35.96875 -17.125 C 40.59375 -17.125 44.285156 -17.953125 47.046875 -19.609375 C 49.816406 -21.265625 51.203125 -23.550781 51.203125 -26.46875 C 51.203125 -30.289062 48.789062 -33.082031 43.96875 -34.84375 L 23.984375 -42.15625 C 17.847656 -44.414062 13.269531 -47.476562 10.25 -51.34375 C 7.238281 -55.21875 5.734375 -60.148438 5.734375 -66.140625 C 5.734375 -71.867188 7.078125 -76.914062 9.765625 -81.28125 C 12.453125 -85.65625 16.242188 -89.035156 21.140625 -91.421875 C 26.046875 -93.816406 31.71875 -95.015625 38.15625 -95.015625 C 43.1875 -95.015625 48.488281 -94.382812 54.0625 -93.125 C 59.644531 -91.875 64.546875 -90.21875 68.765625 -88.15625 L 68.765625 -69.453125 C 64.742188 -71.609375 60.144531 -73.335938 54.96875 -74.640625 C 49.789062 -75.953125 44.988281 -76.609375 40.5625 -76.609375 C 37 -76.609375 34.132812 -75.867188 31.96875 -74.390625 C 29.8125 -72.910156 28.734375 -70.910156 28.734375 -68.390625 C 28.734375 -64.773438 31.09375 -62.160156 35.8125 -60.546875 L 54.59375 -53.609375 C 60.976562 -51.203125 65.828125 -48 69.140625 -44 C 72.460938 -40 74.125 -34.832031 74.125 -28.5 C 74.125 -22.625 72.628906 -17.421875 69.640625 -12.890625 C 66.648438 -8.367188 62.425781 -4.875 56.96875 -2.40625 C 51.519531 0.0507812 45.195312 1.28125 38 1.28125 Z M 38 1.28125 "/></g></g></g></g></g><path stroke-linecap="butt" transform="matrix(0.75, 0.000000000000000124, -0.000000000000000124, 0.75, 762.072568, 301.488288)" fill="none" stroke-linejoin="miter" d="M 1.502201 0.999991 L 678.898063 0.999991 " stroke="#ffffff" stroke-width="2" stroke-opacity="1" stroke-miterlimit="4"/><path stroke-linecap="round" transform="matrix(0.75, 0.000000000000000124, -0.000000000000000124, 0.75, 762.072568, 301.488288)" fill="none" stroke-linejoin="round" d="M 1.002201 -2.000009 L 1.002201 3.999991 " stroke="#ffffff" stroke-width="2" stroke-opacity="1" stroke-miterlimit="4"/><path stroke-linecap="round" transform="matrix(0.75, 0.000000000000000124, -0.000000000000000124, 0.75, 762.072568, 301.488288)" fill="none" stroke-linejoin="round" d="M 685.398063 0.999991 C 685.398063 2.656241 684.054313 3.999991 682.398063 3.999991 C 680.741813 3.999991 679.398063 2.656241 679.398063 0.999991 C 679.398063 -0.656259 680.741813 -2.000009 682.398063 -2.000009 C 684.054313 -2.000009 685.398063 -0.656259 685.398063 0.999991 " stroke="#ffffff" stroke-width="2" stroke-opacity="1" stroke-miterlimit="4"/><g transform="matrix(1, 0, 0, 1, 847, 366)"><g clip-path="url(#acafcc47e4)"><g fill="#ffffff" fill-opacity="1"><g transform="translate(1.160024, 71.234067)"><g><path d="M 57.421875 0 L 42.203125 0 L 42.203125 -26.34375 L 21.359375 -26.34375 L 21.359375 0 L 6.125 0 L 6.125 -63.96875 L 21.359375 -63.96875 L 21.359375 -38.90625 L 42.203125 -38.90625 L 42.203125 -63.96875 L 57.421875 -63.96875 Z M 57.421875 0 "/></g></g></g><g fill="#ffffff" fill-opacity="1"><g transform="translate(90.950489, 71.234067)"><g><path d="M 33.1875 0.875 C 27.257812 0.875 22.03125 -0.492188 17.5 -3.234375 C 12.96875 -5.984375 9.445312 -9.835938 6.9375 -14.796875 C 4.4375 -19.753906 3.1875 -25.492188 3.1875 -32.015625 C 3.1875 -38.492188 4.4375 -44.21875 6.9375 -49.1875 C 9.445312 -54.164062 12.96875 -58.019531 17.5 -60.75 C 22.03125 -63.476562 27.257812 -64.84375 33.1875 -64.84375 C 39.125 -64.84375 44.359375 -63.476562 48.890625 -60.75 C 53.421875 -58.019531 56.921875 -54.175781 59.390625 -49.21875 C 61.859375 -44.257812 63.09375 -38.523438 63.09375 -32.015625 C 63.09375 -25.492188 61.859375 -19.742188 59.390625 -14.765625 C 56.921875 -9.796875 53.421875 -5.945312 48.890625 -3.21875 C 44.359375 -0.488281 39.125 0.875 33.1875 0.875 Z M 33.1875 -11.6875 C 36 -11.6875 38.476562 -12.535156 40.625 -14.234375 C 42.769531 -15.929688 44.429688 -18.3125 45.609375 -21.375 C 46.796875 -24.445312 47.390625 -27.992188 47.390625 -32.015625 C 47.390625 -36.023438 46.796875 -39.5625 45.609375 -42.625 C 44.429688 -45.695312 42.769531 -48.070312 40.625 -49.75 C 38.476562 -51.4375 36 -52.28125 33.1875 -52.28125 C 30.375 -52.28125 27.882812 -51.4375 25.71875 -49.75 C 23.5625 -48.070312 21.890625 -45.695312 20.703125 -42.625 C 19.523438 -39.5625 18.9375 -36.023438 18.9375 -32.015625 C 18.9375 -27.992188 19.523438 -24.445312 20.703125 -21.375 C 21.890625 -18.3125 23.5625 -15.929688 25.71875 -14.234375 C 27.882812 -12.535156 30.375 -11.6875 33.1875 -11.6875 Z M 33.1875 -11.6875 "/></g></g></g><g fill="#ffffff" fill-opacity="1"><g transform="translate(183.519612, 71.234067)"><g><path d="M 72.96875 0 L 57.84375 0 L 58.609375 -46.625 L 42.8125 -9.421875 L 36.328125 -9.421875 L 20.6875 -46.515625 L 21.359375 0 L 6.125 0 L 6.125 -63.96875 L 26.8125 -63.96875 L 39.578125 -31.546875 L 52.28125 -63.96875 L 72.96875 -63.96875 Z M 72.96875 0 "/></g></g></g><g fill="#ffffff" fill-opacity="1"><g transform="translate(288.952883, 71.234067)"><g><path d="M 51.71875 0 L 6.125 0 L 6.125 -63.96875 L 51.09375 -63.96875 L 48.9375 -51.453125 L 21.359375 -51.453125 L 21.359375 -38.640625 L 47.296875 -38.640625 L 47.296875 -26.09375 L 21.359375 -26.09375 L 21.359375 -12.5625 L 51.71875 -12.5625 Z M 51.71875 0 "/></g></g></g></g></g></svg>