<svg xmlns="http://www.w3.org/2000/svg" xmlns:xlink="http://www.w3.org/1999/xlink" width="500" zoomAndPan="magnify" viewBox="0 0 375 374.999991" height="500" preserveAspectRatio="xMidYMid meet" version="1.0"><defs><g/><clipPath id="cb2ac3b9ba"><path d="M 71.507812 27.902344 L 303.257812 27.902344 L 303.257812 259.652344 L 71.507812 259.652344 Z M 71.507812 27.902344 " clip-rule="nonzero"/></clipPath><clipPath id="fc40208593"><path d="M 181.0625 303.269531 L 189.4375 303.269531 L 189.4375 311.640625 L 181.0625 311.640625 Z M 181.0625 303.269531 " clip-rule="nonzero"/></clipPath><clipPath id="6aa0edb389"><path d="M 185.25 303.269531 C 182.9375 303.269531 181.0625 305.144531 181.0625 307.457031 C 181.0625 309.769531 182.9375 311.640625 185.25 311.640625 C 187.5625 311.640625 189.4375 309.769531 189.4375 307.457031 C 189.4375 305.144531 187.5625 303.269531 185.25 303.269531 Z M 185.25 303.269531 " clip-rule="nonzero"/></clipPath><clipPath id="05f7140ac8"><path d="M 0.0625 0.269531 L 8.4375 0.269531 L 8.4375 8.640625 L 0.0625 8.640625 Z M 0.0625 0.269531 " clip-rule="nonzero"/></clipPath><clipPath id="f708da0bfc"><path d="M 4.25 0.269531 C 1.9375 0.269531 0.0625 2.144531 0.0625 4.457031 C 0.0625 6.769531 1.9375 8.640625 4.25 8.640625 C 6.5625 8.640625 8.4375 6.769531 8.4375 4.457031 C 8.4375 2.144531 6.5625 0.269531 4.25 0.269531 Z M 4.25 0.269531 " clip-rule="nonzero"/></clipPath><clipPath id="f400bdc4fc"><rect x="0" width="9" y="0" height="9"/></clipPath></defs><g clip-path="url(#cb2ac3b9ba)"><path fill="#597fb2" d="M 187.480469 32.074219 C 249.226562 32.074219 299.285156 82.132812 299.285156 143.878906 C 299.285156 205.621094 249.226562 255.679688 187.480469 255.679688 C 125.734375 255.679688 75.679688 205.621094 75.679688 143.878906 C 75.679688 82.132812 125.734375 32.074219 187.480469 32.074219 Z M 187.480469 27.894531 C 123.425781 27.894531 71.503906 79.820312 71.503906 143.878906 C 71.503906 207.933594 123.425781 259.859375 187.480469 259.859375 C 251.539062 259.859375 303.464844 207.933594 303.464844 143.878906 C 303.464844 79.820312 251.539062 27.894531 187.480469 27.894531 Z M 243.070312 92.277344 L 243.070312 140.78125 L 229.402344 131.953125 L 203.550781 148.003906 L 199.203125 150.710938 L 196.65625 152.285156 L 196.65625 77.910156 L 167.28125 96.113281 L 167.28125 128.113281 L 160.386719 123.449219 L 160.386719 92.277344 L 203.550781 65.527344 Z M 90.953125 143.878906 C 90.953125 90.5625 134.167969 47.347656 187.484375 47.347656 C 240.796875 47.347656 284.011719 90.5625 284.011719 143.878906 C 284.011719 168.511719 274.769531 190.980469 259.582031 208.039062 L 259.582031 156.628906 L 229.507812 136.273438 L 196.65625 156.628906 L 196.65625 239.960938 C 193.636719 240.246094 190.578125 240.40625 187.484375 240.40625 C 184.386719 240.40625 181.328125 240.246094 178.304688 239.960938 L 178.304688 140.25 L 148.230469 119.890625 L 115.382812 140.25 L 115.382812 208.039062 C 100.195312 190.980469 90.953125 168.511719 90.953125 143.878906 Z M 120.628906 143.171875 L 142.984375 129.316406 L 142.984375 229.53125 C 134.769531 225.253906 127.246094 219.832031 120.628906 213.472656 Z M 201.90625 159.550781 L 224.261719 145.695312 L 224.261719 233.136719 C 217.191406 236.050781 209.703125 238.164062 201.90625 239.332031 Z M 81.277344 143.878906 C 81.277344 202.53125 128.824219 250.082031 187.484375 250.082031 C 246.136719 250.082031 293.6875 202.53125 293.6875 143.878906 C 293.6875 85.222656 246.136719 37.671875 187.484375 37.671875 C 128.824219 37.671875 81.277344 85.222656 81.277344 143.878906 " fill-opacity="1" fill-rule="nonzero"/></g><g fill="#597fb2" fill-opacity="1"><g transform="translate(142.474771, 292.260274)"><g><path d="M 3.734375 -14.5625 L 9.84375 -6.421875 L 9.765625 -14.5625 L 13.171875 -14.5625 L 13.171875 0 L 10.890625 0 L 4.71875 -8.15625 L 4.8125 0 L 1.390625 0 L 1.390625 -14.5625 Z M 3.734375 -14.5625 "/></g></g></g><g fill="#597fb2" fill-opacity="1"><g transform="translate(163.017166, 292.260274)"><g><path d="M 11.78125 0 L 1.390625 0 L 1.390625 -14.5625 L 11.640625 -14.5625 L 11.140625 -11.71875 L 4.859375 -11.71875 L 4.859375 -8.796875 L 10.765625 -8.796875 L 10.765625 -5.9375 L 4.859375 -5.9375 L 4.859375 -2.859375 L 11.78125 -2.859375 Z M 11.78125 0 "/></g></g></g><g fill="#597fb2" fill-opacity="1"><g transform="translate(181.473624, 292.260274)"><g><path d="M 6.375 -4.8125 L 3.96875 0 L -0.03125 0 L 4.25 -7.53125 L 0.265625 -14.5625 L 4.21875 -14.5625 L 6.359375 -10.25 L 8.515625 -14.5625 L 12.484375 -14.5625 L 8.484375 -7.53125 L 12.78125 0 L 8.828125 0 Z M 6.375 -4.8125 "/></g></g></g><g fill="#597fb2" fill-opacity="1"><g transform="translate(200.187894, 292.260274)"><g><path d="M 7.09375 0.203125 C 5.945312 0.203125 4.929688 -0.015625 4.046875 -0.453125 C 3.171875 -0.890625 2.488281 -1.5 2 -2.28125 C 1.519531 -3.070312 1.28125 -3.984375 1.28125 -5.015625 L 1.28125 -14.5625 L 4.75 -14.5625 L 4.75 -5.1875 C 4.75 -4.6875 4.84375 -4.242188 5.03125 -3.859375 C 5.226562 -3.472656 5.503906 -3.175781 5.859375 -2.96875 C 6.222656 -2.757812 6.632812 -2.65625 7.09375 -2.65625 C 7.5625 -2.65625 7.972656 -2.757812 8.328125 -2.96875 C 8.679688 -3.175781 8.957031 -3.472656 9.15625 -3.859375 C 9.351562 -4.242188 9.453125 -4.6875 9.453125 -5.1875 L 9.453125 -14.5625 L 12.921875 -14.5625 L 12.921875 -5.015625 C 12.921875 -3.984375 12.675781 -3.070312 12.1875 -2.28125 C 11.707031 -1.5 11.023438 -0.890625 10.140625 -0.453125 C 9.265625 -0.015625 8.25 0.203125 7.09375 0.203125 Z M 7.09375 0.203125 "/></g></g></g><g fill="#597fb2" fill-opacity="1"><g transform="translate(220.355289, 292.260274)"><g><path d="M 5.90625 0.203125 C 4.988281 0.203125 4.097656 0.113281 3.234375 -0.0625 C 2.367188 -0.25 1.691406 -0.488281 1.203125 -0.78125 L 0.6875 -3.765625 C 1.394531 -3.429688 2.195312 -3.160156 3.09375 -2.953125 C 3.988281 -2.753906 4.820312 -2.65625 5.59375 -2.65625 C 6.3125 -2.65625 6.882812 -2.785156 7.3125 -3.046875 C 7.738281 -3.304688 7.953125 -3.660156 7.953125 -4.109375 C 7.953125 -4.703125 7.578125 -5.140625 6.828125 -5.421875 L 3.734375 -6.546875 C 2.773438 -6.898438 2.0625 -7.378906 1.59375 -7.984375 C 1.125 -8.585938 0.890625 -9.351562 0.890625 -10.28125 C 0.890625 -11.164062 1.097656 -11.945312 1.515625 -12.625 C 1.929688 -13.3125 2.519531 -13.835938 3.28125 -14.203125 C 4.050781 -14.578125 4.9375 -14.765625 5.9375 -14.765625 C 6.71875 -14.765625 7.539062 -14.664062 8.40625 -14.46875 C 9.269531 -14.28125 10.03125 -14.023438 10.6875 -13.703125 L 10.6875 -10.796875 C 10.0625 -11.128906 9.347656 -11.394531 8.546875 -11.59375 C 7.742188 -11.800781 7 -11.90625 6.3125 -11.90625 C 5.75 -11.90625 5.300781 -11.789062 4.96875 -11.5625 C 4.632812 -11.332031 4.46875 -11.019531 4.46875 -10.625 C 4.46875 -10.0625 4.832031 -9.65625 5.5625 -9.40625 L 8.484375 -8.328125 C 9.472656 -7.953125 10.222656 -7.453125 10.734375 -6.828125 C 11.253906 -6.210938 11.515625 -5.414062 11.515625 -4.4375 C 11.515625 -3.519531 11.28125 -2.707031 10.8125 -2 C 10.351562 -1.300781 9.695312 -0.757812 8.84375 -0.375 C 8 0.0078125 7.019531 0.203125 5.90625 0.203125 Z M 5.90625 0.203125 "/></g></g></g><path stroke-linecap="butt" transform="matrix(0.75, 0, 0, 0.75, 193.650006, 307.307968)" fill="none" stroke-linejoin="miter" d="M 3.747909 0.500835 L 128.659375 0.500835 " stroke="#597fb2" stroke-width="1" stroke-opacity="1" stroke-miterlimit="4"/><path stroke-linecap="round" transform="matrix(0.75, 0, 0, 0.75, 193.650006, 307.307968)" fill="none" stroke-linejoin="round" d="M 0.497908 0.500835 C 0.497908 -0.32729 1.169783 -0.999165 1.997909 -0.999165 C 2.826034 -0.999165 3.497909 -0.32729 3.497909 0.500835 C 3.497909 1.32896 2.826034 2.000835 1.997909 2.000835 C 1.169783 2.000835 0.497908 1.32896 0.497908 0.500835 " stroke="#597fb2" stroke-width="1" stroke-opacity="1" stroke-miterlimit="4"/><path stroke-linecap="round" transform="matrix(0.75, 0, 0, 0.75, 193.650006, 307.307968)" fill="none" stroke-linejoin="round" d="M 128.909375 -0.999165 L 128.909375 2.000835 " stroke="#597fb2" stroke-width="1" stroke-opacity="1" stroke-miterlimit="4"/><path stroke-linecap="butt" transform="matrix(0.75, 0, 0, 0.75, 79.791467, 307.307968)" fill="none" stroke-linejoin="miter" d="M 0.752002 0.500835 L 125.663469 0.500835 " stroke="#597fb2" stroke-width="1" stroke-opacity="1" stroke-miterlimit="4"/><path stroke-linecap="round" transform="matrix(0.75, 0, 0, 0.75, 79.791467, 307.307968)" fill="none" stroke-linejoin="round" d="M 0.502002 -0.999165 L 0.502002 2.000835 " stroke="#597fb2" stroke-width="1" stroke-opacity="1" stroke-miterlimit="4"/><path stroke-linecap="round" transform="matrix(0.75, 0, 0, 0.75, 79.791467, 307.307968)" fill="none" stroke-linejoin="round" d="M 128.913469 0.500835 C 128.913469 1.32896 128.241594 2.000835 127.413469 2.000835 C 126.585344 2.000835 125.913469 1.32896 125.913469 0.500835 C 125.913469 -0.32729 126.585344 -0.999165 127.413469 -0.999165 C 128.241594 -0.999165 128.913469 -0.32729 128.913469 0.500835 " stroke="#597fb2" stroke-width="1" stroke-opacity="1" stroke-miterlimit="4"/><g clip-path="url(#fc40208593)"><g clip-path="url(#6aa0edb389)"><g transform="matrix(1, 0, 0, 1, 181, 303)"><g clip-path="url(#f400bdc4fc)"><g clip-path="url(#05f7140ac8)"><g clip-path="url(#f708da0bfc)"><path fill="#597fb2" d="M 0.0625 0.269531 L 8.4375 0.269531 L 8.4375 8.640625 L 0.0625 8.640625 Z M 0.0625 0.269531 " fill-opacity="1" fill-rule="nonzero"/></g></g></g></g></g></g><g fill="#597fb2" fill-opacity="1"><g transform="translate(148.487809, 332.763201)"><g><path d="M 13.078125 0 L 9.609375 0 L 9.609375 -6 L 4.859375 -6 L 4.859375 0 L 1.390625 0 L 1.390625 -14.5625 L 4.859375 -14.5625 L 4.859375 -8.859375 L 9.609375 -8.859375 L 9.609375 -14.5625 L 13.078125 -14.5625 Z M 13.078125 0 "/></g></g></g><g fill="#597fb2" fill-opacity="1"><g transform="translate(168.936454, 332.763201)"><g><path d="M 7.5625 0.203125 C 6.207031 0.203125 5.015625 -0.109375 3.984375 -0.734375 C 2.953125 -1.359375 2.148438 -2.234375 1.578125 -3.359375 C 1.015625 -4.492188 0.734375 -5.804688 0.734375 -7.296875 C 0.734375 -8.765625 1.015625 -10.066406 1.578125 -11.203125 C 2.148438 -12.335938 2.953125 -13.210938 3.984375 -13.828125 C 5.015625 -14.453125 6.207031 -14.765625 7.5625 -14.765625 C 8.914062 -14.765625 10.109375 -14.453125 11.140625 -13.828125 C 12.171875 -13.210938 12.96875 -12.335938 13.53125 -11.203125 C 14.09375 -10.078125 14.375 -8.773438 14.375 -7.296875 C 14.375 -5.804688 14.09375 -4.492188 13.53125 -3.359375 C 12.96875 -2.234375 12.171875 -1.359375 11.140625 -0.734375 C 10.109375 -0.109375 8.914062 0.203125 7.5625 0.203125 Z M 7.5625 -2.65625 C 8.195312 -2.65625 8.757812 -2.847656 9.25 -3.234375 C 9.738281 -3.628906 10.117188 -4.175781 10.390625 -4.875 C 10.660156 -5.570312 10.796875 -6.378906 10.796875 -7.296875 C 10.796875 -8.203125 10.660156 -9.003906 10.390625 -9.703125 C 10.117188 -10.410156 9.738281 -10.953125 9.25 -11.328125 C 8.757812 -11.710938 8.195312 -11.90625 7.5625 -11.90625 C 6.914062 -11.90625 6.347656 -11.710938 5.859375 -11.328125 C 5.367188 -10.953125 4.988281 -10.410156 4.71875 -9.703125 C 4.445312 -9.003906 4.3125 -8.203125 4.3125 -7.296875 C 4.3125 -6.378906 4.445312 -5.570312 4.71875 -4.875 C 4.988281 -4.175781 5.367188 -3.628906 5.859375 -3.234375 C 6.347656 -2.847656 6.914062 -2.65625 7.5625 -2.65625 Z M 7.5625 -2.65625 "/></g></g></g><g fill="#597fb2" fill-opacity="1"><g transform="translate(190.017912, 332.763201)"><g><path d="M 16.625 0 L 13.171875 0 L 13.34375 -10.625 L 9.75 -2.140625 L 8.28125 -2.140625 L 4.71875 -10.59375 L 4.859375 0 L 1.390625 0 L 1.390625 -14.5625 L 6.109375 -14.5625 L 9.015625 -7.1875 L 11.90625 -14.5625 L 16.625 -14.5625 Z M 16.625 0 "/></g></g></g><g fill="#597fb2" fill-opacity="1"><g transform="translate(214.029057, 332.763201)"><g><path d="M 11.78125 0 L 1.390625 0 L 1.390625 -14.5625 L 11.640625 -14.5625 L 11.140625 -11.71875 L 4.859375 -11.71875 L 4.859375 -8.796875 L 10.765625 -8.796875 L 10.765625 -5.9375 L 4.859375 -5.9375 L 4.859375 -2.859375 L 11.78125 -2.859375 Z M 11.78125 0 "/></g></g></g></svg>